<svg xmlns="http://www.w3.org/2000/svg" fill="none" viewBox="0 0 96 96" height="96" width="96">
<path fill="#D90023" d="M0 8C0 3.58172 3.58172 0 8 0H88C92.4183 0 96 3.58172 96 8V88C96 92.4183 92.4183 96 88 96H8C3.58172 96 0 92.4183 0 88V8Z"></path>
<path fill="white" d="M80 29.4855L63.8421 38.7427V56.6403L47.6853 66.3085L32.1579 57.2573V74.9488L47.6853 84L80 65.6915V29.4855ZM48.3147 29.6915L63.8421 38.7427V21.0512L48.3147 12L16 30.3085V66.5135L32.1568 57.2562V39.3597L48.3147 29.6915Z" clip-rule="evenodd" fill-rule="evenodd"></path>
</svg>
